<?xml version="1.0" encoding="us-ascii" standalone="no"?><svg xmlns="http://www.w3.org/2000/svg" xmlns:xlink="http://www.w3.org/1999/xlink" contentStyleType="text/css" height="124px" preserveAspectRatio="none" style="width:193px;height:124px;background:#FFFFFF;" version="1.1" viewBox="0 0 193 124" width="193px" zoomAndPan="magnify"><defs/><g><!--class Singleton--><g id="elem_Singleton"><rect codeLine="4" fill="#F1F1F1" height="103.8633" id="Singleton" rx="2.5" ry="2.5" style="stroke:#181818;stroke-width:0.5;" width="172" x="7" y="7"/><ellipse cx="59.25" cy="23" fill="#ADD1B2" rx="11" ry="11" style="stroke:#181818;stroke-width:1.0;"/><path d="M62.0156,18.875 Q62.1719,18.6563 62.3594,18.5469 Q62.5469,18.4375 62.7656,18.4375 Q63.1406,18.4375 63.375,18.7031 Q63.6094,18.9531 63.6094,19.5625 L63.6094,21.0156 Q63.6094,21.625 63.375,21.8906 Q63.1406,22.1563 62.7656,22.1563 Q62.4219,22.1563 62.2188,21.9531 Q62.0156,21.7656 61.9063,21.25 Q61.8594,20.8906 61.6719,20.7031 Q61.3438,20.3281 60.7344,20.1094 Q60.125,19.8906 59.5,19.8906 Q58.7344,19.8906 58.0938,20.2188 Q57.4688,20.5469 56.9688,21.2969 Q56.4844,22.0469 56.4844,23.0781 L56.4844,24.1719 Q56.4844,25.4063 57.375,26.2344 Q58.2656,27.0469 59.8594,27.0469 Q60.7969,27.0469 61.4531,26.7969 Q61.8438,26.6406 62.2656,26.2031 Q62.5313,25.9375 62.6719,25.8594 Q62.8281,25.7813 63.0313,25.7813 Q63.3594,25.7813 63.6094,26.0469 Q63.875,26.2969 63.875,26.6406 Q63.875,26.9844 63.5313,27.3906 Q63.0313,27.9688 62.2344,28.2969 Q61.1563,28.75 59.8594,28.75 Q58.3438,28.75 57.1406,28.125 Q56.1563,27.625 55.4688,26.5625 Q54.7813,25.4844 54.7813,24.2031 L54.7813,23.0469 Q54.7813,21.7188 55.3906,20.5781 Q56.0156,19.4219 57.1094,18.8125 Q58.2031,18.1875 59.4375,18.1875 Q60.1719,18.1875 60.8125,18.3594 Q61.4688,18.5156 62.0156,18.875 Z " fill="#000000"/><text fill="#000000" font-family="sans-serif" font-size="14" lengthAdjust="spacing" textLength="59" x="79.75" y="28.7969">Singleton</text><line style="stroke:#181818;stroke-width:0.5;" x1="8" x2="178" y1="39" y2="39"/><rect fill="none" height="6" style="stroke:#C82930;stroke-width:1.0;" width="6" x="15" y="50.8105"/><text fill="#000000" font-family="sans-serif" font-size="14" lengthAdjust="spacing" text-decoration="underline" textLength="116" x="27" y="58.1074">Singleton instance</text><line style="stroke:#181818;stroke-width:0.5;" x1="8" x2="178" y1="65.6211" y2="65.6211"/><rect fill="#F24D5C" height="6" style="stroke:#C82930;stroke-width:1.0;" width="6" x="15" y="77.4316"/><text fill="#000000" font-family="sans-serif" font-size="14" lengthAdjust="spacing" textLength="69" x="27" y="84.7285">Singleton()</text><ellipse cx="18" cy="99.0527" fill="#84BE84" rx="3" ry="3" style="stroke:#038048;stroke-width:1.0;"/><text fill="#000000" font-family="sans-serif" font-size="14" lengthAdjust="spacing" textLength="146" x="27" y="103.3496">Singleton getInstance()</text></g><!--SRC=[JOex3e0W343tdgAR6gFiti3P4pH8a0GAaJeHxounHXtVfzb4KfwKIfvOZk177OFIdd8ULaTsfm00D-FYs7eZaR70W5Yoa3Xz_hpZwbWRhFsrRGVzjrWZytFLSC85]--></g></svg>